<?xml version="1.0" encoding="UTF-8" standalone="no"?>
<svg
   xmlns:dc="http://purl.org/dc/elements/1.1/"
   xmlns:cc="http://creativecommons.org/ns#"
   xmlns:rdf="http://www.w3.org/1999/02/22-rdf-syntax-ns#"
   xmlns:svg="http://www.w3.org/2000/svg"
   xmlns="http://www.w3.org/2000/svg"
   id="svg8"
   version="1.1"
   viewBox="0 0 45.356922 45.356922"
   height="45.356922mm"
   width="45.356922mm">
  <defs
     id="defs2" />
  <metadata
     id="metadata5">
    <rdf:RDF>
      <cc:Work
         rdf:about="">
        <dc:format>image/svg+xml</dc:format>
        <dc:type
           rdf:resource="http://purl.org/dc/dcmitype/StillImage" />
        <dc:title></dc:title>
      </cc:Work>
    </rdf:RDF>
  </metadata>
  <g
     transform="translate(-20.9779,-10.966625)"
     id="layer1">
    <path
       id="path3713"
       d="M 43.656103,10.966625 A 22.678572,22.678572 0 0 0 20.9779,33.645344 22.678572,22.678572 0 0 0 43.656103,56.323546 22.678572,22.678572 0 0 0 66.334821,33.645344 22.678572,22.678572 0 0 0 43.656103,10.966625 Z m 2.834968,3.023588 a 15.875,15.875 0 0 1 15.875,15.875 15.875,15.875 0 0 1 -15.875,15.874999 15.875,15.875 0 0 1 -15.875,-15.874999 15.875,15.875 0 0 1 15.875,-15.875 z"
       style="fill:#ffffff;stroke-width:0.26458332" />
  </g>
</svg>
